<svg xmlns="http://www.w3.org/2000/svg" xmlns:xlink="http://www.w3.org/1999/xlink" xmlns:lucid="lucid" width="1202" height="562"><g transform="translate(1921 641.0000000000006)" lucid:page-tab-id="0_0"><path d="M-1600-474a6 6 0 0 1 6-6h228a6 6 0 0 1 6 6v68a6 6 0 0 1-6 6h-228a6 6 0 0 1-6-6z" stroke="#6db1ff" stroke-width="2" fill="#cfe4ff"/><use xlink:href="#a" transform="matrix(1,0,0,1,-1588,-467.9999999999999) translate(49.32378472222223 32.29166666666667)"/><path d="M-1600-314a6 6 0 0 1 6-6h228a6 6 0 0 1 6 6v68a6 6 0 0 1-6 6h-228a6 6 0 0 1-6-6z" stroke="#6db1ff" stroke-width="2" fill="#cfe4ff"/><use xlink:href="#b" transform="matrix(1,0,0,1,-1588,-307.9999999999999) translate(65.32638888888889 32.29166666666667)"/><path d="M-1600-154a6 6 0 0 1 6-6h228a6 6 0 0 1 6 6v68a6 6 0 0 1-6 6h-228a6 6 0 0 1-6-6z" stroke="#6db1ff" stroke-width="2" fill="#cfe4ff"/><use xlink:href="#c" transform="matrix(1,0,0,1,-1588,-147.9999999999999) translate(43.98958333333334 32.29166666666667)"/><path d="M-1600-634a6 6 0 0 1 6-6h228a6 6 0 0 1 6 6v68a6 6 0 0 1-6 6h-228a6 6 0 0 1-6-6z" stroke="#6db1ff" stroke-width="2" fill="#cfe4ff"/><use xlink:href="#d" transform="matrix(1,0,0,1,-1588,-627.9999999999999) translate(70.66059027777777 32.29166666666667)"/><path d="M-960-314a6 6 0 0 1 6-6h228a6 6 0 0 1 6 6v68a6 6 0 0 1-6 6h-228a6 6 0 0 1-6-6z" stroke="#fe7070" stroke-width="2" fill="#ffd9d9"/><use xlink:href="#e" transform="matrix(1,0,0,1,-948,-308.0000000000004) translate(54.657986111111114 32.29166666666667)"/><path d="M-960-474a6 6 0 0 1 6-6h228a6 6 0 0 1 6 6v68a6 6 0 0 1-6 6h-228a6 6 0 0 1-6-6z" stroke="#fe7070" stroke-width="2" fill="#ffd9d9"/><use xlink:href="#f" transform="matrix(1,0,0,1,-948,-468.00000000000045) translate(22.6527777777778 32.60416666666667)"/><path d="M-1280-634a6 6 0 0 1 6-6h228a6 6 0 0 1 6 6v68a6 6 0 0 1-6 6h-228a6 6 0 0 1-6-6z" stroke="#fe7070" stroke-width="2" fill="#ffd9d9"/><use xlink:href="#g" transform="matrix(1,0,0,1,-1268,-628.0000000000006) translate(70.66059027777777 32.29166666666667)"/><path d="M-1920-154a6 6 0 0 1 6-6h228a6 6 0 0 1 6 6v68a6 6 0 0 1-6 6h-228a6 6 0 0 1-6-6z" stroke="#fcce14" stroke-width="2" fill="#fcfcca"/><use xlink:href="#h" transform="matrix(1,0,0,1,-1908,-147.99999999999977) translate(54.657986111111114 32.29166666666667)"/><path d="M-1280-474a6 6 0 0 1 6-6h228a6 6 0 0 1 6 6v68a6 6 0 0 1-6 6h-228a6 6 0 0 1-6-6z" stroke="#6db1ff" stroke-width="2" fill="#cfe4ff"/><use xlink:href="#i" transform="matrix(1,0,0,1,-1268,-468.00000000000017) translate(54.657986111111114 32.29166666666667)"/><path d="M-1280-314a6 6 0 0 1 6-6h228a6 6 0 0 1 6 6v68a6 6 0 0 1-6 6h-228a6 6 0 0 1-6-6z" stroke="#6db1ff" stroke-width="2" fill="#cfe4ff"/><use xlink:href="#j" transform="matrix(1,0,0,1,-1268,-308) translate(65.32638888888889 32.29166666666667)"/><path d="M-1280-154a6 6 0 0 1 6-6h228a6 6 0 0 1 6 6v68a6 6 0 0 1-6 6h-228a6 6 0 0 1-6-6z" stroke="#6db1ff" stroke-width="2" fill="#cfe4ff"/><use xlink:href="#k" transform="matrix(1,0,0,1,-1268,-148) translate(75.99479166666666 32.29166666666667)"/><path d="M-1920-314a6 6 0 0 1 6-6h228a6 6 0 0 1 6 6v68a6 6 0 0 1-6 6h-228a6 6 0 0 1-6-6z" stroke="#fcce14" stroke-width="2" fill="#fcfcca"/><use xlink:href="#l" transform="matrix(1,0,0,1,-1908,-308.0000000000001) translate(49.32378472222223 32.29166666666667)"/><path d="M-1920-634a6 6 0 0 1 6-6h228a6 6 0 0 1 6 6v68a6 6 0 0 1-6 6h-228a6 6 0 0 1-6-6z" stroke="#fcce14" stroke-width="2" fill="#fcfcca"/><use xlink:href="#m" transform="matrix(1,0,0,1,-1908,-628.0000000000006) translate(33.32118055555557 32.29166666666667)"/><path d="M-1920-474a6 6 0 0 1 6-6h228a6 6 0 0 1 6 6v68a6 6 0 0 1-6 6h-228a6 6 0 0 1-6-6z" stroke="#fcce14" stroke-width="2" fill="#fcfcca"/><use xlink:href="#n" transform="matrix(1,0,0,1,-1908,-468.00000000000034) translate(59.9921875 32.29166666666667)"/><path d="M-1282-600h-58.5" stroke="#fe7070" stroke-width="2" fill="none"/><path d="M-1281-599.02h-1.03V-601h1.03z" stroke="#fe7070" stroke-width=".05" fill="#fe7070"/><path d="M-1355.76-600l14.26-4.63v9.26z" stroke="#fe7070" stroke-width="2" fill="#fe7070"/><path d="M-1678-440h58.5" stroke="#fcce14" stroke-width="2" fill="none"/><path d="M-1677.97-439.02h-1.03v-1.96h1.03z" stroke="#fcce14" stroke-width=".05" fill="#fcce14"/><path d="M-1604.24-440l-14.26 4.63v-9.26z" stroke="#fcce14" stroke-width="2" fill="#fcce14"/><path d="M-1678-280h58.5" stroke="#fcce14" stroke-width="2" fill="none"/><path d="M-1677.97-279.02h-1.03v-1.96h1.03z" stroke="#fcce14" stroke-width=".05" fill="#fcce14"/><path d="M-1604.24-280l-14.26 4.63v-9.26z" stroke="#fcce14" stroke-width="2" fill="#fcce14"/><path d="M-1678-120h58.5" stroke="#fcce14" stroke-width="2" fill="none"/><path d="M-1677.97-119.03h-1.03v-1.94h1.03z" stroke="#fcce14" stroke-width=".05" fill="#fcce14"/><path d="M-1604.24-120l-14.26 4.64v-9.28z" stroke="#fcce14" stroke-width="2" fill="#fcce14"/><path d="M-1282-120h-58.5" stroke="#6db1ff" stroke-width="2" fill="none"/><path d="M-1281-119.03h-1.03v-1.94h1.03z" stroke="#6db1ff" stroke-width=".05" fill="#6db1ff"/><path d="M-1355.76-120l14.26-4.64v9.28z" stroke="#6db1ff" stroke-width="2" fill="#6db1ff"/><path d="M-1282-280h-58.5" stroke="#6db1ff" stroke-width="2" fill="none"/><path d="M-1281-279.02h-1.03v-1.96h1.03z" stroke="#6db1ff" stroke-width=".05" fill="#6db1ff"/><path d="M-1355.76-280l14.26-4.63v9.26z" stroke="#6db1ff" stroke-width="2" fill="#6db1ff"/><path d="M-1282-440h-58.5" stroke="#6db1ff" stroke-width="2" fill="none"/><path d="M-1281-439.02h-1.03v-1.96h1.03z" stroke="#6db1ff" stroke-width=".05" fill="#6db1ff"/><path d="M-1355.76-440l14.26-4.63v9.26z" stroke="#6db1ff" stroke-width="2" fill="#6db1ff"/><path d="M-1678-600h58.5" stroke="#fcce14" stroke-width="2" fill="none"/><path d="M-1677.97-599.02h-1.03V-601h1.03z" stroke="#fcce14" stroke-width=".05" fill="#fcce14"/><path d="M-1604.24-600l-14.26 4.63v-9.26z" stroke="#fcce14" stroke-width="2" fill="#fcce14"/><path d="M-962-440h-58.5" stroke="#fe7070" stroke-width="2" fill="none"/><path d="M-961-439.02h-1.03v-1.96h1.03z" stroke="#fe7070" stroke-width=".05" fill="#fe7070"/><path d="M-1035.76-440l14.26-4.63v9.26z" stroke="#fe7070" stroke-width="2" fill="#fe7070"/><path d="M-962-280h-58.5" stroke="#fe7070" stroke-width="2" fill="none"/><path d="M-961-279.02h-1.03v-1.96h1.03z" stroke="#fe7070" stroke-width=".05" fill="#fe7070"/><path d="M-1035.76-280l14.26-4.63v9.26z" stroke="#fe7070" stroke-width="2" fill="#fe7070"/><path d="M-1480-162v-58.5" stroke="#6db1ff" stroke-width="2" fill="none"/><path d="M-1479.03-161h-1.94v-1.03h1.94z" stroke="#6db1ff" stroke-width=".05" fill="#6db1ff"/><path d="M-1480-235.76l4.63 14.26h-9.27z" stroke="#6db1ff" stroke-width="2" fill="#6db1ff"/><path d="M-1480-322v-58.5" stroke="#6db1ff" stroke-width="2" fill="none"/><path d="M-1479.03-321h-1.94v-1.03h1.94z" stroke="#6db1ff" stroke-width=".05" fill="#6db1ff"/><path d="M-1480-395.76l4.63 14.26h-9.27z" stroke="#6db1ff" stroke-width="2" fill="#6db1ff"/><path d="M-1480-482v-58.5" stroke="#6db1ff" stroke-width="2" fill="none"/><path d="M-1479.03-481h-1.94v-1.03h1.94z" stroke="#6db1ff" stroke-width=".05" fill="#6db1ff"/><path d="M-1480-555.76l4.63 14.26h-9.27z" stroke="#6db1ff" stroke-width="2" fill="#6db1ff"/><path d="M-960-154a6 6 0 0 1 6-6h228a6 6 0 0 1 6 6v68a6 6 0 0 1-6 6h-228a6 6 0 0 1-6-6z" stroke="#6db1ff" stroke-width="2" fill="#cfe4ff"/><use xlink:href="#o" transform="matrix(1,0,0,1,-948,-147.99999999999977) translate(86.66319444444444 32.29166666666667)"/><path d="M-962-120h-58.5" stroke="#6db1ff" stroke-width="2" fill="none"/><path d="M-961-119.03h-1.03v-1.94h1.03z" stroke="#6db1ff" stroke-width=".05" fill="#6db1ff"/><path d="M-1035.76-120l14.26-4.64v9.28z" stroke="#6db1ff" stroke-width="2" fill="#6db1ff"/><path d="M-960-634a6 6 0 0 1 6-6h228a6 6 0 0 1 6 6v68a6 6 0 0 1-6 6h-228a6 6 0 0 1-6-6z" stroke="#54c45e" stroke-width="2" fill="#c3f7c8"/><use xlink:href="#p" transform="matrix(1,0,0,1,-948,-627.9999999999999) translate(81.32899305555556 32.60416666666667)"/><defs><path d="M650-1214c-281 0-336 244-336 533 0 295 60 546 347 546 188 0 263-142 322-282l159 65C1058-155 935 20 659 20c-401 0-546-295-546-701 0-407 135-689 536-689 264 0 391 146 466 335l-168 65c-47-129-127-244-297-244" id="q"/><path d="M615-1102c343 0 484 203 482 560-1 347-147 562-488 562-336 0-475-219-479-562-4-349 156-560 485-560zm-8 989c240 0 301-180 301-429 0-245-55-427-290-427-236 0-299 181-299 427 0 243 61 429 288 429" id="r"/><path d="M706-1102c241 0 344 136 343 381V0H868v-695c1-168-57-273-220-268-190 6-283 138-283 336V0H185c-3-360 6-732-6-1082h170c4 54 7 126 8 185h3c63-121 164-204 346-205" id="s"/><path d="M682 16c-209 0-323-80-324-285v-671H190v-142h170l58-282h120v282h432v142H538v652c2 114 60 155 182 155 106 0 209-16 297-34v137C921-4 806 16 682 16" id="t"/><path d="M839-1102c70 0 148 7 206 17v167c-112-18-268-36-363 15-129 69-208 203-208 395V0H294c-10-367 32-789-52-1082h171c21 75 41 161 48 250h5c67-152 152-270 373-270" id="u"/><path d="M736-142h380V0H134v-142h422v-1200H267v-142h469v1342" id="v"/><path d="M617-1102c355 0 481 238 477 599H322c5 222 84 388 301 388 144 0 244-59 284-166l158 45C1002-72 854 20 623 20c-342 0-490-220-490-568 0-346 151-554 484-554zm291 461c-18-192-90-328-289-328-194 0-287 128-295 328h584" id="w"/><path d="M873-819c-18-114-119-146-250-146-163 0-245 50-245 151 0 151 170 148 294 185 182 54 388 94 388 320 0 240-189 325-439 329-245 4-410-69-454-268l159-31c24 133 136 168 295 165 144-2 270-31 270-171 0-164-195-160-331-202-167-52-350-87-350-299 0-218 173-315 413-313 220 2 373 77 412 260" id="x"/><g id="a"><use transform="matrix(0.008680555555555556,0,0,0.008680555555555556,0,0)" xlink:href="#q"/><use transform="matrix(0.008680555555555556,0,0,0.008680555555555556,10.668402777777779,0)" xlink:href="#r"/><use transform="matrix(0.008680555555555556,0,0,0.008680555555555556,21.336805555555557,0)" xlink:href="#s"/><use transform="matrix(0.008680555555555556,0,0,0.008680555555555556,32.005208333333336,0)" xlink:href="#t"/><use transform="matrix(0.008680555555555556,0,0,0.008680555555555556,42.673611111111114,0)" xlink:href="#u"/><use transform="matrix(0.008680555555555556,0,0,0.008680555555555556,53.34201388888889,0)" xlink:href="#r"/><use transform="matrix(0.008680555555555556,0,0,0.008680555555555556,64.01041666666667,0)" xlink:href="#v"/><use transform="matrix(0.008680555555555556,0,0,0.008680555555555556,74.67881944444446,0)" xlink:href="#v"/><use transform="matrix(0.008680555555555556,0,0,0.008680555555555556,85.34722222222223,0)" xlink:href="#w"/><use transform="matrix(0.008680555555555556,0,0,0.008680555555555556,96.015625,0)" xlink:href="#u"/><use transform="matrix(0.008680555555555556,0,0,0.008680555555555556,106.68402777777777,0)" xlink:href="#x"/></g><path d="M614-1226c-167 1-283 53-283 213 0 183 186 193 334 234 230 63 463 120 463 409 0 286-219 387-518 390C309 23 131-98 79-338l185-37c34 165 149 248 351 246 184-2 324-58 324-238 0-203-207-221-372-266-210-57-422-111-422-377 0-267 201-356 470-360 279-5 430 101 480 324l-188 33c-28-141-121-215-293-213" id="y"/><path d="M715 0H502L69-1082h202c94 253 197 500 285 758 19 57 36 126 52 183 96-335 234-626 350-941h201" id="z"/><path d="M745-142h380V0H143v-142h422v-798H246v-142h499v940zM545-1292v-192h200v192H545" id="A"/><path d="M631 20c-350 0-501-215-501-562 0-355 162-560 502-560 250 0 399 118 446 323l-192 14c-23-124-109-196-262-196-242 0-305 171-305 415 1 245 61 427 304 427 151 0 248-77 267-215l190 12C1039-107 883 20 631 20" id="B"/><g id="b"><use transform="matrix(0.008680555555555556,0,0,0.008680555555555556,0,0)" xlink:href="#y"/><use transform="matrix(0.008680555555555556,0,0,0.008680555555555556,10.668402777777779,0)" xlink:href="#w"/><use transform="matrix(0.008680555555555556,0,0,0.008680555555555556,21.336805555555557,0)" xlink:href="#u"/><use transform="matrix(0.008680555555555556,0,0,0.008680555555555556,32.005208333333336,0)" xlink:href="#z"/><use transform="matrix(0.008680555555555556,0,0,0.008680555555555556,42.673611111111114,0)" xlink:href="#A"/><use transform="matrix(0.008680555555555556,0,0,0.008680555555555556,53.34201388888889,0)" xlink:href="#B"/><use transform="matrix(0.008680555555555556,0,0,0.008680555555555556,64.01041666666667,0)" xlink:href="#w"/><use transform="matrix(0.008680555555555556,0,0,0.008680555555555556,74.67881944444446,0)" xlink:href="#x"/></g><path d="M1121-976c0 225-142 341-344 379L1177 0H957L591-575H353V0H162v-1349h482c281 3 477 100 477 373zM633-726c181-1 296-73 296-247 0-149-101-223-304-223H353v470h280" id="C"/><path d="M698-1104c312 3 392 244 392 558 0 315-82 566-392 566-169 0-277-65-331-184h-5c8 188 2 394 4 589H185V-858c0-76-1-156-6-224h175c6 52 9 120 10 178h4c58-122 150-202 330-200zm-49 991c225 0 255-203 255-433 0-225-32-419-253-419-236 0-285 192-285 441 0 237 53 411 283 411" id="D"/><g id="c"><use transform="matrix(0.008680555555555556,0,0,0.008680555555555556,0,0)" xlink:href="#C"/><use transform="matrix(0.008680555555555556,0,0,0.008680555555555556,10.668402777777779,0)" xlink:href="#w"/><use transform="matrix(0.008680555555555556,0,0,0.008680555555555556,21.336805555555557,0)" xlink:href="#D"/><use transform="matrix(0.008680555555555556,0,0,0.008680555555555556,32.005208333333336,0)" xlink:href="#r"/><use transform="matrix(0.008680555555555556,0,0,0.008680555555555556,42.673611111111114,0)" xlink:href="#x"/><use transform="matrix(0.008680555555555556,0,0,0.008680555555555556,53.34201388888889,0)" xlink:href="#A"/><use transform="matrix(0.008680555555555556,0,0,0.008680555555555556,64.01041666666667,0)" xlink:href="#t"/><use transform="matrix(0.008680555555555556,0,0,0.008680555555555556,74.67881944444446,0)" xlink:href="#r"/><use transform="matrix(0.008680555555555556,0,0,0.008680555555555556,85.34722222222223,0)" xlink:href="#u"/><use transform="matrix(0.008680555555555556,0,0,0.008680555555555556,96.015625,0)" xlink:href="#A"/><use transform="matrix(0.008680555555555556,0,0,0.008680555555555556,106.68402777777777,0)" xlink:href="#w"/><use transform="matrix(0.008680555555555556,0,0,0.008680555555555556,117.35243055555554,0)" xlink:href="#x"/></g><path d="M622-1349c296 4 497 117 497 404 0 282-193 424-485 431H353V0H162v-1349h460zm-15 684c195-3 320-88 320-277 0-184-129-255-328-254H353v531h254" id="E"/><path d="M1048-32c-2 300-135 456-433 456-222-1-358-88-400-267l184-25c22 99 100 157 222 156 184-2 248-125 248-315 0-64 3-133-2-194C807-100 706-13 524-12c-306 0-381-228-381-537 0-318 85-550 400-550 164 0 271 83 325 202h3c1-60 3-134 12-185h171c-13 339-4 702-6 1050zM585-145c210-8 284-178 284-406 0-192-52-331-177-392-33-16-69-22-104-22-223 2-259 184-259 414 0 229 31 415 256 406" id="F"/><path d="M1000-272c3 95 12 159 101 161 21 0 41-3 59-7V-6c-44 10-86 16-139 16-141 2-191-84-197-217h-6C748-76 648 20 446 20c-207 0-318-120-318-322 0-266 194-348 454-354l236-4c12-191-40-305-222-305-140 0-220 47-232 172l-188-17c33-204 181-292 423-292 255 0 401 118 401 364v466zm-683-27c0 109 63 184 175 182 166-3 259-96 306-217 24-65 20-120 20-200-232 7-501-28-501 235" id="G"/><path d="M904-1102c199 0 220 177 220 381V0H956v-686c-3-114 0-215-60-264-70-33-125-4-158 71-26 56-39 140-39 252V0H531v-686c-3-114-1-215-61-264-78-41-136 24-157 84-24 69-39 159-39 259V0H105c-3-360 6-732-6-1082h149c6 50 3 123 8 175 36-100 83-195 216-195 135 0 166 79 196 196 42-105 93-196 236-196" id="H"/><g id="d"><use transform="matrix(0.008680555555555556,0,0,0.008680555555555556,0,0)" xlink:href="#E"/><use transform="matrix(0.008680555555555556,0,0,0.008680555555555556,10.668402777777779,0)" xlink:href="#u"/><use transform="matrix(0.008680555555555556,0,0,0.008680555555555556,21.336805555555557,0)" xlink:href="#r"/><use transform="matrix(0.008680555555555556,0,0,0.008680555555555556,32.005208333333336,0)" xlink:href="#F"/><use transform="matrix(0.008680555555555556,0,0,0.008680555555555556,42.673611111111114,0)" xlink:href="#u"/><use transform="matrix(0.008680555555555556,0,0,0.008680555555555556,53.34201388888889,0)" xlink:href="#G"/><use transform="matrix(0.008680555555555556,0,0,0.008680555555555556,64.01041666666667,0)" xlink:href="#H"/></g><path d="M1034 0L896-382H333L196 0H0l510-1349h217L1228 0h-194zM847-531c-77-225-157-447-231-674-69 231-154 451-232 674h463" id="I"/><path d="M528 20c-247 0-343-132-343-381v-721h180v686c-4 177 45 284 224 277 194-8 279-136 279-336v-627h181c3 360-6 732 6 1082H885c-4-54-7-126-8-185h-3C809-64 714 20 528 20" id="J"/><path d="M285-1169c8 382 2 780 4 1169H129v-1349h237c86 239 188 461 253 720 69-258 169-481 255-720h225V0H937c2-390-5-788 6-1169-75 255-170 488-259 729H547c-90-240-185-475-262-729" id="K"/><g id="e"><use transform="matrix(0.008680555555555556,0,0,0.008680555555555556,0,0)" xlink:href="#I"/><use transform="matrix(0.008680555555555556,0,0,0.008680555555555556,10.668402777777779,0)" xlink:href="#J"/><use transform="matrix(0.008680555555555556,0,0,0.008680555555555556,21.336805555555557,0)" xlink:href="#t"/><use transform="matrix(0.008680555555555556,0,0,0.008680555555555556,32.005208333333336,0)" xlink:href="#r"/><use transform="matrix(0.008680555555555556,0,0,0.008680555555555556,42.673611111111114,0)" xlink:href="#K"/><use transform="matrix(0.008680555555555556,0,0,0.008680555555555556,53.34201388888889,0)" xlink:href="#G"/><use transform="matrix(0.008680555555555556,0,0,0.008680555555555556,64.01041666666667,0)" xlink:href="#D"/><use transform="matrix(0.008680555555555556,0,0,0.008680555555555556,74.67881944444446,0)" xlink:href="#D"/><use transform="matrix(0.008680555555555556,0,0,0.008680555555555556,85.34722222222223,0)" xlink:href="#w"/><use transform="matrix(0.008680555555555556,0,0,0.008680555555555556,96.015625,0)" xlink:href="#u"/></g><path d="M385-1193v494h676v158H385V0H194v-1349h891v156H385" id="L"/><path d="M713 0H515L10-1349h201C345-955 498-579 615-168c116-411 269-787 402-1181h201" id="M"/><path d="M865-914c-3-187-2-380-2-570h180v1261c0 76 1 155 6 223H877c-8-49-9-116-10-174h-5C801-44 708 26 530 26c-135 0-234-46-297-139s-95-232-95-419c0-377 131-566 392-566 176 0 271 63 335 184zm-286-51c-222 0-255 197-255 427 0 229 31 425 253 425 237 0 286-195 286-441 0-238-52-411-284-411" id="N"/><g id="f"><use transform="matrix(0.008680555555555556,0,0,0.008680555555555556,0,0)" xlink:href="#L"/><use transform="matrix(0.008680555555555556,0,0,0.008680555555555556,10.668402777777779,0)" xlink:href="#v"/><use transform="matrix(0.008680555555555556,0,0,0.008680555555555556,21.336805555555557,0)" xlink:href="#J"/><use transform="matrix(0.008680555555555556,0,0,0.008680555555555556,32.005208333333336,0)" xlink:href="#w"/><use transform="matrix(0.008680555555555556,0,0,0.008680555555555556,42.673611111111114,0)" xlink:href="#s"/><use transform="matrix(0.008680555555555556,0,0,0.008680555555555556,53.34201388888889,0)" xlink:href="#t"/><use transform="matrix(0.008680555555555556,0,0,0.008680555555555556,64.01041666666667,0)" xlink:href="#M"/><use transform="matrix(0.008680555555555556,0,0,0.008680555555555556,74.67881944444446,0)" xlink:href="#G"/><use transform="matrix(0.008680555555555556,0,0,0.008680555555555556,85.34722222222223,0)" xlink:href="#v"/><use transform="matrix(0.008680555555555556,0,0,0.008680555555555556,96.015625,0)" xlink:href="#A"/><use transform="matrix(0.008680555555555556,0,0,0.008680555555555556,106.68402777777777,0)" xlink:href="#N"/><use transform="matrix(0.008680555555555556,0,0,0.008680555555555556,117.35243055555554,0)" xlink:href="#G"/><use transform="matrix(0.008680555555555556,0,0,0.008680555555555556,128.02083333333331,0)" xlink:href="#t"/><use transform="matrix(0.008680555555555556,0,0,0.008680555555555556,138.6892361111111,0)" xlink:href="#A"/><use transform="matrix(0.008680555555555556,0,0,0.008680555555555556,149.35763888888886,0)" xlink:href="#r"/><use transform="matrix(0.008680555555555556,0,0,0.008680555555555556,160.02604166666663,0)" xlink:href="#s"/></g><g id="g"><use transform="matrix(0.008680555555555556,0,0,0.008680555555555556,0,0)" xlink:href="#y"/><use transform="matrix(0.008680555555555556,0,0,0.008680555555555556,10.668402777777779,0)" xlink:href="#w"/><use transform="matrix(0.008680555555555556,0,0,0.008680555555555556,21.336805555555557,0)" xlink:href="#u"/><use transform="matrix(0.008680555555555556,0,0,0.008680555555555556,32.005208333333336,0)" xlink:href="#A"/><use transform="matrix(0.008680555555555556,0,0,0.008680555555555556,42.673611111111114,0)" xlink:href="#v"/><use transform="matrix(0.008680555555555556,0,0,0.008680555555555556,53.34201388888889,0)" xlink:href="#r"/><use transform="matrix(0.008680555555555556,0,0,0.008680555555555556,64.01041666666667,0)" xlink:href="#F"/></g><g id="h"><use transform="matrix(0.008680555555555556,0,0,0.008680555555555556,0,0)" xlink:href="#K"/><use transform="matrix(0.008680555555555556,0,0,0.008680555555555556,10.668402777777779,0)" xlink:href="#A"/><use transform="matrix(0.008680555555555556,0,0,0.008680555555555556,21.336805555555557,0)" xlink:href="#F"/><use transform="matrix(0.008680555555555556,0,0,0.008680555555555556,32.005208333333336,0)" xlink:href="#u"/><use transform="matrix(0.008680555555555556,0,0,0.008680555555555556,42.673611111111114,0)" xlink:href="#G"/><use transform="matrix(0.008680555555555556,0,0,0.008680555555555556,53.34201388888889,0)" xlink:href="#t"/><use transform="matrix(0.008680555555555556,0,0,0.008680555555555556,64.01041666666667,0)" xlink:href="#A"/><use transform="matrix(0.008680555555555556,0,0,0.008680555555555556,74.67881944444446,0)" xlink:href="#r"/><use transform="matrix(0.008680555555555556,0,0,0.008680555555555556,85.34722222222223,0)" xlink:href="#s"/><use transform="matrix(0.008680555555555556,0,0,0.008680555555555556,96.015625,0)" xlink:href="#x"/></g><g id="i"><use transform="matrix(0.008680555555555556,0,0,0.008680555555555556,0,0)" xlink:href="#M"/><use transform="matrix(0.008680555555555556,0,0,0.008680555555555556,10.668402777777779,0)" xlink:href="#G"/><use transform="matrix(0.008680555555555556,0,0,0.008680555555555556,21.336805555555557,0)" xlink:href="#v"/><use transform="matrix(0.008680555555555556,0,0,0.008680555555555556,32.005208333333336,0)" xlink:href="#A"/><use transform="matrix(0.008680555555555556,0,0,0.008680555555555556,42.673611111111114,0)" xlink:href="#N"/><use transform="matrix(0.008680555555555556,0,0,0.008680555555555556,53.34201388888889,0)" xlink:href="#G"/><use transform="matrix(0.008680555555555556,0,0,0.008680555555555556,64.01041666666667,0)" xlink:href="#t"/><use transform="matrix(0.008680555555555556,0,0,0.008680555555555556,74.67881944444446,0)" xlink:href="#r"/><use transform="matrix(0.008680555555555556,0,0,0.008680555555555556,85.34722222222223,0)" xlink:href="#u"/><use transform="matrix(0.008680555555555556,0,0,0.008680555555555556,96.015625,0)" xlink:href="#x"/></g><g id="j"><use transform="matrix(0.008680555555555556,0,0,0.008680555555555556,0,0)" xlink:href="#K"/><use transform="matrix(0.008680555555555556,0,0,0.008680555555555556,10.668402777777779,0)" xlink:href="#G"/><use transform="matrix(0.008680555555555556,0,0,0.008680555555555556,21.336805555555557,0)" xlink:href="#D"/><use transform="matrix(0.008680555555555556,0,0,0.008680555555555556,32.005208333333336,0)" xlink:href="#D"/><use transform="matrix(0.008680555555555556,0,0,0.008680555555555556,42.673611111111114,0)" xlink:href="#A"/><use transform="matrix(0.008680555555555556,0,0,0.008680555555555556,53.34201388888889,0)" xlink:href="#s"/><use transform="matrix(0.008680555555555556,0,0,0.008680555555555556,64.01041666666667,0)" xlink:href="#F"/><use transform="matrix(0.008680555555555556,0,0,0.008680555555555556,74.67881944444446,0)" xlink:href="#x"/></g><g id="k"><use transform="matrix(0.008680555555555556,0,0,0.008680555555555556,0,0)" xlink:href="#K"/><use transform="matrix(0.008680555555555556,0,0,0.008680555555555556,10.668402777777779,0)" xlink:href="#r"/><use transform="matrix(0.008680555555555556,0,0,0.008680555555555556,21.336805555555557,0)" xlink:href="#N"/><use transform="matrix(0.008680555555555556,0,0,0.008680555555555556,32.005208333333336,0)" xlink:href="#w"/><use transform="matrix(0.008680555555555556,0,0,0.008680555555555556,42.673611111111114,0)" xlink:href="#v"/><use transform="matrix(0.008680555555555556,0,0,0.008680555555555556,53.34201388888889,0)" xlink:href="#x"/></g><path d="M168 279c222 39 310-114 368-290L66-1082h192c120 299 249 590 362 896 115-301 235-597 351-896h190L705 0c-65 164-130 320-275 396-67 36-177 35-262 18V279" id="O"/><path d="M648-963c-190 6-283 138-283 336V0H185v-1484h181c-2 197 6 404-9 587h3c62-120 159-205 339-205 242 0 351 135 350 381V0H868v-695c1-168-57-273-220-268" id="P"/><g id="l"><use transform="matrix(0.008680555555555556,0,0,0.008680555555555556,0,0)" xlink:href="#K"/><use transform="matrix(0.008680555555555556,0,0,0.008680555555555556,10.668402777777779,0)" xlink:href="#w"/><use transform="matrix(0.008680555555555556,0,0,0.008680555555555556,21.336805555555557,0)" xlink:href="#H"/><use transform="matrix(0.008680555555555556,0,0,0.008680555555555556,32.005208333333336,0)" xlink:href="#r"/><use transform="matrix(0.008680555555555556,0,0,0.008680555555555556,42.673611111111114,0)" xlink:href="#u"/><use transform="matrix(0.008680555555555556,0,0,0.008680555555555556,53.34201388888889,0)" xlink:href="#O"/><use transform="matrix(0.008680555555555556,0,0,0.008680555555555556,64.01041666666667,0)" xlink:href="#q"/><use transform="matrix(0.008680555555555556,0,0,0.008680555555555556,74.67881944444446,0)" xlink:href="#G"/><use transform="matrix(0.008680555555555556,0,0,0.008680555555555556,85.34722222222223,0)" xlink:href="#B"/><use transform="matrix(0.008680555555555556,0,0,0.008680555555555556,96.015625,0)" xlink:href="#P"/><use transform="matrix(0.008680555555555556,0,0,0.008680555555555556,106.68402777777777,0)" xlink:href="#w"/></g><path d="M839-1335c-182-6-269 67-259 253h491v142H580V0H400v-940H138v-142h262c-15-293 132-408 418-402 94 2 200 7 281 21v145c-75-10-177-14-260-17" id="Q"/><g id="m"><use transform="matrix(0.008680555555555556,0,0,0.008680555555555556,0,0)" xlink:href="#q"/><use transform="matrix(0.008680555555555556,0,0,0.008680555555555556,10.668402777777779,0)" xlink:href="#r"/><use transform="matrix(0.008680555555555556,0,0,0.008680555555555556,21.336805555555557,0)" xlink:href="#s"/><use transform="matrix(0.008680555555555556,0,0,0.008680555555555556,32.005208333333336,0)" xlink:href="#Q"/><use transform="matrix(0.008680555555555556,0,0,0.008680555555555556,42.673611111111114,0)" xlink:href="#A"/><use transform="matrix(0.008680555555555556,0,0,0.008680555555555556,53.34201388888889,0)" xlink:href="#F"/><use transform="matrix(0.008680555555555556,0,0,0.008680555555555556,64.01041666666667,0)" xlink:href="#J"/><use transform="matrix(0.008680555555555556,0,0,0.008680555555555556,74.67881944444446,0)" xlink:href="#u"/><use transform="matrix(0.008680555555555556,0,0,0.008680555555555556,85.34722222222223,0)" xlink:href="#G"/><use transform="matrix(0.008680555555555556,0,0,0.008680555555555556,96.015625,0)" xlink:href="#t"/><use transform="matrix(0.008680555555555556,0,0,0.008680555555555556,106.68402777777777,0)" xlink:href="#A"/><use transform="matrix(0.008680555555555556,0,0,0.008680555555555556,117.35243055555554,0)" xlink:href="#r"/><use transform="matrix(0.008680555555555556,0,0,0.008680555555555556,128.02083333333331,0)" xlink:href="#s"/><use transform="matrix(0.008680555555555556,0,0,0.008680555555555556,138.6892361111111,0)" xlink:href="#x"/></g><path d="M1018 0H814c-67-224-138-444-200-673C552-442 476-224 407 0H204L21-1082h178c43 310 105 601 126 933 54-225 128-425 193-638h193c63 212 134 415 185 638 22-336 90-622 136-933h176" id="R"/><path d="M604-135c236 0 291-142 291-376v-838h190v859c5 340-142 510-480 510-326 0-463-164-463-492v-877h191v851c-3 222 46 363 271 363" id="S"/><path d="M202-1349h823v156H709v1037h316V0H202v-156h316v-1037H202v-156" id="T"/><g id="n"><use transform="matrix(0.008680555555555556,0,0,0.008680555555555556,0,0)" xlink:href="#y"/><use transform="matrix(0.008680555555555556,0,0,0.008680555555555556,10.668402777777779,0)" xlink:href="#R"/><use transform="matrix(0.008680555555555556,0,0,0.008680555555555556,21.336805555555557,0)" xlink:href="#G"/><use transform="matrix(0.008680555555555556,0,0,0.008680555555555556,32.005208333333336,0)" xlink:href="#F"/><use transform="matrix(0.008680555555555556,0,0,0.008680555555555556,42.673611111111114,0)" xlink:href="#F"/><use transform="matrix(0.008680555555555556,0,0,0.008680555555555556,53.34201388888889,0)" xlink:href="#w"/><use transform="matrix(0.008680555555555556,0,0,0.008680555555555556,64.01041666666667,0)" xlink:href="#u"/><use transform="matrix(0.008680555555555556,0,0,0.008680555555555556,74.67881944444446,0)" xlink:href="#S"/><use transform="matrix(0.008680555555555556,0,0,0.008680555555555556,85.34722222222223,0)" xlink:href="#T"/></g><path d="M473-1349c438-1 655 221 652 661C1122-268 945-8 532 0H162v-1349h311zm42 1193c308-4 416-205 418-532 2-330-131-509-459-505H353v1037h162" id="U"/><g id="o"><use transform="matrix(0.008680555555555556,0,0,0.008680555555555556,0,0)" xlink:href="#U"/><use transform="matrix(0.008680555555555556,0,0,0.008680555555555556,10.668402777777779,0)" xlink:href="#G"/><use transform="matrix(0.008680555555555556,0,0,0.008680555555555556,21.336805555555557,0)" xlink:href="#t"/><use transform="matrix(0.008680555555555556,0,0,0.008680555555555556,32.005208333333336,0)" xlink:href="#G"/></g><path d="M709-1193V0H519v-1193H76v-156h1076v156H709" id="V"/><g id="p"><use transform="matrix(0.008680555555555556,0,0,0.008680555555555556,0,0)" xlink:href="#V"/><use transform="matrix(0.008680555555555556,0,0,0.008680555555555556,10.668402777777779,0)" xlink:href="#w"/><use transform="matrix(0.008680555555555556,0,0,0.008680555555555556,21.336805555555557,0)" xlink:href="#x"/><use transform="matrix(0.008680555555555556,0,0,0.008680555555555556,32.005208333333336,0)" xlink:href="#t"/><use transform="matrix(0.008680555555555556,0,0,0.008680555555555556,42.673611111111114,0)" xlink:href="#x"/></g></defs></g></svg>